<svg width="57" height="55" viewBox="0 0 57 55" fill="none" xmlns="http://www.w3.org/2000/svg">
<path fill-rule="evenodd" clip-rule="evenodd" d="M25.5812 24.8677V1.83072C19.4612 2.12045 13.916 4.65957 9.71922 8.65764L25.5812 24.8677ZM25.5812 29.2204L9.4173 45.7389C13.6483 49.9054 19.3133 52.5616 25.5812 52.8583V29.2204ZM24.3337 26.1425L8.47173 9.9325C4.55951 14.2214 2.07492 19.8882 1.7914 26.1425H24.3337ZM24.3337 27.9455H1.771C1.91424 34.2853 4.31792 40.0541 8.19045 44.443L24.3337 27.9455Z" fill="white"/>
<path fill-rule="evenodd" clip-rule="evenodd" d="M53.9886 8.37019L37.8454 24.8677V1.80987C44.0491 1.95625 49.694 4.41268 53.9886 8.37019ZM37.8454 52.8791V29.2204L54.2954 46.0314C49.9646 50.1571 44.1979 52.7292 37.8454 52.8791Z" fill="white"/>
</svg>
